<svg width="62" height="70" viewBox="0 0 62 70" fill="none" xmlns="http://www.w3.org/2000/svg">
<g clip-path="url(#clip0_18_288)">
<path d="M13.7525 45.6969C20.393 46.1494 21.8121 45.9854 21.8121 47.3293C21.8121 50.0637 12.8502 50.0719 12.8502 47.5371C12.8516 46.8412 13.3 46.252 13.7525 45.6969ZM17.5738 29.75C13.1592 29.75 12.9596 35.8299 17.4713 35.8299C21.916 35.8299 21.8066 29.75 17.5738 29.75ZM61.25 10.9375V59.0625C61.25 60.803 60.5586 62.4722 59.3279 63.7029C58.0972 64.9336 56.428 65.625 54.6875 65.625H6.5625C4.82202 65.625 3.15282 64.9336 1.92211 63.7029C0.691404 62.4722 0 60.803 0 59.0625L0 10.9375C0 9.19702 0.691404 7.52782 1.92211 6.29711C3.15282 5.0664 4.82202 4.375 6.5625 4.375H54.6875C56.428 4.375 58.0972 5.0664 59.3279 6.29711C60.5586 7.52782 61.25 9.19702 61.25 10.9375ZM30.2148 20.4135C30.2148 22.3945 31.3605 23.5416 33.3402 23.5416C35.3555 23.5416 36.5025 22.3945 36.5025 20.4135C36.5025 18.4324 35.3582 17.3633 33.343 17.3633C31.3633 17.3633 30.2148 18.4352 30.2148 20.4135ZM27.2316 26.6602H20.4572C17.0393 25.7646 9.30645 25.9971 9.30645 33.0518C9.30645 35.6221 10.5916 37.4268 12.2937 38.2621C10.1486 40.2268 9.13281 41.1523 9.13281 42.4648C9.13281 43.4041 9.51426 44.2723 10.6613 44.7562C9.44453 45.9047 8.74727 46.7359 8.74727 48.3C8.75 51.0439 11.1467 52.6367 17.4344 52.6367C23.4801 52.6367 26.9869 50.3795 26.9869 46.3846C26.9869 41.3711 23.1273 41.5557 14.0301 41.0006L15.1758 39.1645C17.5 39.8125 25.3189 40.0162 25.3189 33.3635C25.3189 31.7652 24.6586 30.6537 24.0338 29.8539L27.2303 29.6105L27.2316 26.6602ZM38.7625 41.6773L36.9852 41.434C36.4629 41.3643 36.4287 41.2973 36.4287 40.7381V26.3211H29.2373L28.8559 29.1334C31.0092 29.8922 31.1801 29.7979 31.1801 30.5238V40.7422C31.1801 41.5105 31.1377 41.3684 28.8559 41.6814V44.424H38.757L38.7625 41.6773ZM52.5 43.0664L51.5607 40.008C45.9648 42.1094 46.3859 38.3113 46.3859 37.7207V29.4191H51.5607V25.9451H46.6635C46.2711 25.9451 46.39 26.2896 46.39 20.6637H43.0842C42.7027 24.4508 41.4873 25.9793 38.4357 26.3266V29.4191C41.2344 29.4191 41.1455 29.3029 41.1455 29.7664V38.8678C41.1455 42.7943 42.7082 44.4609 46.8426 44.4609C48.8182 44.4609 51.0057 43.8006 52.5 43.0664Z" fill="white"/>
</g>
<defs>
<clipPath id="clip0_18_288">
<rect width="61.25" height="70" fill="white"/>
</clipPath>
</defs>
</svg>
