<svg width="50" height="70" viewBox="0 0 50 70" fill="none" xmlns="http://www.w3.org/2000/svg">
<g clip-path="url(#clip0_18_305)">
<path d="M24.7897 69.8231L4.58825 64.215L0.0863342 13.7219H49.5536L45.0471 64.2072L24.7897 69.8231Z" fill="#264DE4"/>
<path d="M41.189 60.9924L45.0399 17.8503H24.82V65.5304L41.189 60.9924Z" fill="#2965F1"/>
<path d="M10.4068 36.5776L10.9617 42.7704H24.82V36.5776H10.4068ZM9.29144 24.0433L9.85435 30.2361H24.82V24.0433H9.29144ZM24.82 52.6609L24.7929 52.6681L17.896 50.8058L17.4551 45.8669H11.2385L12.106 55.5905L24.7915 59.1118L24.82 59.104V52.6609Z" fill="#EBEBEB"/>
<path d="M11.7282 0H19.2285V3.13662H14.8649V6.27324H19.2289V9.40967H11.7282V0ZM20.7288 0H28.2292V2.72748H23.8654V3.27294H28.2292V9.54618H20.729V6.68199H25.0928V6.13654H20.7286V0H20.7288ZM29.7295 0H37.23V2.72748H32.8661V3.27294H37.23V9.54618H29.7295V6.68199H34.0933V6.13654H29.7297V0H29.7295Z" fill="white"/>
<path d="M39.1936 36.5776L40.3115 24.0433H24.7987V30.2361H33.5248L32.9613 36.5776H24.7987V42.7704H32.4244L31.7054 50.802L24.7985 52.6662V59.1089L37.4941 55.5905L37.5871 54.5441L39.0426 38.2405L39.1936 36.5776Z" fill="white"/>
</g>
<defs>
<clipPath id="clip0_18_305">
<rect width="49.64" height="70" fill="white"/>
</clipPath>
</defs>
</svg>
