<svg width="70" height="56" viewBox="0 0 70 56" fill="none" xmlns="http://www.w3.org/2000/svg">
<g clip-path="url(#clip0_18_300)">
<path d="M14.5408 0C10.547 0 7.59165 3.49563 7.72399 7.28654C7.85113 10.9284 7.68598 15.6457 6.49854 19.4924C5.30754 23.3503 3.29301 25.7941 0.00271606 26.108V29.6503C3.29301 29.9642 5.30754 32.408 6.49854 36.2662C7.68598 40.1129 7.85113 44.8296 7.72399 48.4718C7.59165 52.2621 10.547 55.7583 14.5413 55.7583H55.4644C59.4584 55.7583 62.413 52.2627 62.2806 48.4718C62.1538 44.8299 62.3186 40.1129 63.5061 36.2662C64.6979 32.4083 66.707 29.964 69.9972 29.6503V26.108C66.707 25.7941 64.6979 23.3503 63.5063 19.4924C62.3186 15.6462 62.1538 10.9287 62.2806 7.28654C62.413 3.49617 59.4584 0 55.4644 0H14.5403H14.5408ZM47.4568 34.3228C47.4568 39.5428 43.5634 42.7084 37.102 42.7084H26.1025C25.7879 42.7084 25.4862 42.5833 25.2638 42.3609C25.0413 42.1384 24.9164 41.8367 24.9164 41.5221V14.2362C24.9164 14.0804 24.947 13.9261 25.0066 13.7822C25.0662 13.6382 25.1536 13.5074 25.2638 13.3972C25.3739 13.287 25.5047 13.1996 25.6487 13.1399C25.7926 13.0803 25.9469 13.0496 26.1027 13.0496H37.0391C42.4268 13.0496 45.9626 15.9683 45.9626 20.4491C45.9626 23.5942 43.5839 26.4098 40.5536 26.9028V27.0671C44.6792 27.5196 47.4568 30.3765 47.4568 34.3228ZM35.9023 16.8104H29.6309V25.6691H34.9133C38.9965 25.6691 41.2484 24.0248 41.2484 21.0856C41.2484 18.3315 39.312 16.8104 35.9025 16.8104H35.9023ZM29.6309 29.1842V38.9465H36.1333C40.3844 38.9465 42.6368 37.2406 42.6368 34.0346C42.6368 30.8279 40.3218 29.1836 35.8599 29.1836H29.6309V29.1842Z" fill="#7E13F8"/>
</g>
<defs>
<clipPath id="clip0_18_300">
<rect width="70" height="55.7769" fill="white"/>
</clipPath>
</defs>
</svg>
