<svg width="70" height="38" viewBox="0 0 70 38" fill="none" xmlns="http://www.w3.org/2000/svg">
<g clip-path="url(#clip0_18_280)">
<path d="M34.9999 0C25.6671 0 19.8339 4.13745 17.5008 12.4121C21.0006 8.27467 25.0836 6.72315 29.7501 7.75758C32.4125 8.34764 34.3155 10.0604 36.4219 11.9559C39.8534 15.0441 43.8246 18.6182 52.4989 18.6182C61.8316 18.6182 67.6648 14.4807 69.9979 6.20606C66.4981 10.3435 62.4151 11.895 57.7486 10.8606C55.0863 10.2705 53.1833 8.55782 51.0768 6.6623C47.6454 3.57406 43.6742 0 34.9999 0ZM17.5008 18.6182C8.16808 18.6182 2.33488 22.7556 0.00177002 31.0303C3.50158 26.8928 7.5846 25.3413 12.2511 26.3758C14.9134 26.9658 16.8164 28.6785 18.9229 30.5741C22.3543 33.6623 26.3255 37.2364 34.9999 37.2364C44.3326 37.2364 50.1658 33.0989 52.4989 24.8242C48.9991 28.9617 44.9161 30.5132 40.2496 29.4788C37.5872 28.8887 35.6842 27.176 33.5778 25.2805C30.1463 22.1922 26.1751 18.6182 17.5008 18.6182Z" fill="url(#paint0_linear_18_280)"/>
</g>
<defs>
<linearGradient id="paint0_linear_18_280" x1="-1.94272" y1="11.9156" x2="54.6674" y2="48.7297" gradientUnits="userSpaceOnUse">
<stop stop-color="#2298BD"/>
<stop offset="1" stop-color="#0ED7B5"/>
</linearGradient>
<clipPath id="clip0_18_280">
<rect width="70" height="37.3333" fill="white"/>
</clipPath>
</defs>
</svg>
