<svg width="70" height="61" viewBox="0 0 70 61" fill="none" xmlns="http://www.w3.org/2000/svg">
<g clip-path="url(#clip0_18_282)">
<path d="M58.9971 41.3136C59.2928 41.1438 59.5387 40.8992 59.71 40.6043C59.8813 40.3095 59.9721 39.9748 59.9732 39.6338L60.0082 28.3823C60.0092 28.0412 60.1 27.7065 60.2713 27.4116C60.4426 27.1167 60.6885 26.872 60.9842 26.7022L67.0834 23.1988C67.379 23.029 67.714 22.9399 68.0549 22.9404C68.3958 22.941 68.7306 23.0312 69.0256 23.2019C69.3206 23.3727 69.5656 23.618 69.7359 23.9133C69.9062 24.2086 69.9959 24.5434 69.996 24.8843V45.34C69.996 45.6821 69.9057 46.018 69.7344 46.314C69.563 46.61 69.3165 46.8556 69.0199 47.0258L46.0019 60.2469C45.7078 60.4158 45.3747 60.5048 45.0356 60.5051C44.6965 60.5055 44.3633 60.4171 44.0689 60.2489L26.0049 49.9168C25.7073 49.7469 25.4599 49.5013 25.2878 49.205C25.1157 48.9087 25.0249 48.5721 25.0248 48.2294V37.9149C25.0248 37.9034 25.0385 37.8957 25.0502 37.9012C25.0598 37.9072 25.0735 37.9012 25.0735 37.8875V37.876C25.0735 37.8684 25.0773 37.8605 25.0852 37.8566L39.9629 29.3097C39.9765 29.3018 39.9705 29.2804 39.9549 29.2804C39.9508 29.2804 39.9468 29.2788 39.9439 29.2759C39.941 29.2729 39.9394 29.269 39.9394 29.2648L39.9686 19.1527C39.97 18.8107 39.8812 18.4744 39.7111 18.1777C39.541 17.8811 39.2957 17.6345 38.9999 17.4629C38.7041 17.2914 38.3683 17.2009 38.0263 17.2005C37.6843 17.2002 37.3483 17.2901 37.0522 17.4611L25.9951 23.8328C25.7 24.0027 25.3655 24.0922 25.0249 24.0922C24.6844 24.0922 24.3498 24.0027 24.0547 23.8328L12.9627 17.446C12.6672 17.2759 12.3321 17.1864 11.9911 17.1866C11.6501 17.1868 11.3151 17.2767 11.0198 17.4473C10.7246 17.6179 10.4793 17.8631 10.3088 18.1584C10.1382 18.4537 10.0483 18.7887 10.0481 19.1297V37.4058C10.0484 37.7464 9.95916 38.0811 9.78934 38.3764C9.61953 38.6717 9.37511 38.9172 9.08057 39.0883C8.78603 39.2595 8.4517 39.3502 8.11106 39.3514C7.77043 39.3527 7.43544 39.2644 7.13966 39.0954L0.983918 35.5756C0.685839 35.4053 0.438155 35.1592 0.266044 34.8622C0.0939331 34.5652 0.00353207 34.2279 0.00403037 33.8846L0.0587116 1.93982C0.0595837 1.59938 0.149835 1.26514 0.320436 0.970532C0.491038 0.675922 0.736008 0.431274 1.03084 0.261061C1.32568 0.0908482 1.66004 0.00103808 2.00048 0.000614889C2.34092 0.000191699 2.6755 0.0891702 2.97076 0.25865L24.0567 12.3689C24.3513 12.5381 24.6851 12.6272 25.0249 12.6272C25.3647 12.6272 25.6985 12.5381 25.9932 12.3689L47.0728 0.258103C47.3685 0.0882237 47.7037 -0.000872071 48.0448 -0.000240809C48.3858 0.000390452 48.7207 0.0907265 49.0158 0.261699C49.3109 0.432672 49.5559 0.678265 49.7261 0.973825C49.8962 1.26939 49.9857 1.60451 49.9854 1.94556V33.8977C49.9856 34.2395 49.8957 34.5753 49.7247 34.8713C49.5537 35.1673 49.3077 35.4129 49.0115 35.5835L37.9719 41.9413C37.6754 42.1122 37.4292 42.3584 37.2583 42.6549C37.0874 42.9515 36.9978 43.2879 36.9986 43.6302C36.9993 43.9724 37.0905 44.3084 37.2627 44.6042C37.435 44.9 37.6823 45.145 37.9796 45.3146L44.0692 48.7814C44.3634 48.9489 44.6964 49.0366 45.035 49.0359C45.3736 49.0352 45.7061 48.946 45.9997 48.7773L58.9974 41.3133L58.9971 41.3136ZM60.2745 12.6511C60.2747 12.9949 60.3662 13.3326 60.5395 13.6295C60.7128 13.9265 60.9618 14.1722 61.261 14.3416C61.5603 14.511 61.8991 14.598 62.2429 14.5937C62.5868 14.5894 62.9233 14.494 63.2182 14.3172L69.0511 10.8176C69.339 10.6451 69.5774 10.4009 69.743 10.109C69.9085 9.81698 69.9957 9.48711 69.996 9.15145V2.01966C69.9954 1.67596 69.9037 1.33856 69.7303 1.04184C69.5568 0.745119 69.3078 0.49968 69.0086 0.330534C68.7094 0.161387 68.3707 0.0745788 68.027 0.0789531C67.6834 0.0833274 67.347 0.178728 67.0522 0.355435L61.2196 3.85503C60.9316 4.02755 60.6932 4.27171 60.5276 4.56374C60.3619 4.85577 60.2747 5.18571 60.2745 5.52144V12.653V12.6511Z" fill="#007FFF"/>
</g>
<defs>
<clipPath id="clip0_18_282">
<rect width="70" height="60.6961" fill="white"/>
</clipPath>
</defs>
</svg>
