<svg width="70" height="70" viewBox="0 0 70 70" fill="none" xmlns="http://www.w3.org/2000/svg">
<path d="M11.6667 17.5V46.6666H26.25V35C26.25 33.4529 26.8646 31.9691 27.9585 30.8752C29.0525 29.7812 30.5362 29.1666 32.0833 29.1666H46.6667C48.2138 29.1666 49.6975 29.7812 50.7915 30.8752C51.8854 31.9691 52.5 33.4529 52.5 35V46.6666H58.3333V17.5H11.6667ZM0 58.3333V52.5H11.6667C10.1196 52.5 8.63584 51.8854 7.54188 50.7914C6.44791 49.6975 5.83333 48.2137 5.83333 46.6666V17.5C5.83333 15.9529 6.44791 14.4691 7.54188 13.3752C8.63584 12.2812 10.1196 11.6666 11.6667 11.6666H58.3333C59.8804 11.6666 61.3642 12.2812 62.4581 13.3752C63.5521 14.4691 64.1667 15.9529 64.1667 17.5V46.6666C64.1667 48.2137 63.5521 49.6975 62.4581 50.7914C61.3642 51.8854 59.8804 52.5 58.3333 52.5H70V58.3333H52.5C52.5 61.5708 49.875 64.1666 46.6667 64.1666H32.0833C30.5362 64.1666 29.0525 63.552 27.9585 62.4581C26.8646 61.3641 26.25 59.8804 26.25 58.3333H0ZM33.5417 58.3333C33.1549 58.3333 32.784 58.4869 32.5105 58.7604C32.237 59.0339 32.0833 59.4049 32.0833 59.7916C32.0833 60.1784 32.237 60.5493 32.5105 60.8228C32.784 61.0963 33.1549 61.25 33.5417 61.25C33.9284 61.25 34.2994 61.0963 34.5729 60.8228C34.8464 60.5493 35 60.1784 35 59.7916C35 59.4049 34.8464 59.0339 34.5729 58.7604C34.2994 58.4869 33.9284 58.3333 33.5417 58.3333ZM45.2083 58.3333C44.8216 58.3333 44.4506 58.4869 44.1771 58.7604C43.9036 59.0339 43.75 59.4049 43.75 59.7916C43.75 60.1784 43.9036 60.5493 44.1771 60.8228C44.4506 61.0963 44.8216 61.25 45.2083 61.25C45.5951 61.25 45.966 61.0963 46.2395 60.8228C46.513 60.5493 46.6667 60.1784 46.6667 59.7916C46.6667 59.4049 46.513 59.0339 46.2395 58.7604C45.966 58.4869 45.5951 58.3333 45.2083 58.3333ZM37.9167 58.3333V61.25H40.8333V58.3333H37.9167ZM32.0833 35V55.4166H46.6667V35H32.0833Z" fill="white"/>
</svg>
