<svg width="1920" height="75" viewBox="0 0 1920 75" fill="none" xmlns="http://www.w3.org/2000/svg">
<path d="M0 33.5714C81.6386 5.47619 184.682 26.4285 207.581 33.5714C230.48 40.7143 313.114 53.5714 411.677 33.5714C510.241 13.5714 567.985 11.9047 642.655 33.5714C717.324 55.238 786.258 52.8905 853.223 33.5714C915.945 15.4762 988.126 12.619 1066.78 33.5714C1148.38 55.3101 1205.66 52.381 1268.88 33.5714C1330.75 15.1634 1403.79 14.762 1478.95 33.5714C1539.28 48.6686 1640.81 56.2024 1696.99 33.5714C1753.17 10.9403 1867.25 13 1920 33.5714V0H0V33.5714Z" fill="#0075A2"/>
<path d="M207.581 33.5714C184.682 26.4285 81.6386 5.47619 0 33.5714V75H1920V33.5714C1867.25 13 1753.17 10.9403 1696.99 33.5714C1640.81 56.2024 1539.28 48.6686 1478.95 33.5714C1403.79 14.762 1330.75 15.1634 1268.88 33.5714C1205.66 52.381 1148.38 55.3101 1066.78 33.5714C988.126 12.619 915.945 15.4762 853.223 33.5714C786.258 52.8905 717.324 55.238 642.655 33.5714C567.985 11.9047 510.241 13.5714 411.677 33.5714C313.114 53.5714 230.48 40.7143 207.581 33.5714Z" fill="#000F1B"/>
</svg>
