<svg width="84" height="181" viewBox="0 0 84 181" fill="none" xmlns="http://www.w3.org/2000/svg">
<g clip-path="url(#clip0_18_337)">
<path d="M57.6909 20.5622C50.1366 11.599 43.6311 2.49539 42.3021 0.604993C42.2706 0.571816 42.2326 0.545403 42.1905 0.527355C42.1484 0.509306 42.103 0.5 42.0572 0.5C42.0114 0.5 41.9661 0.509306 41.924 0.527355C41.8819 0.545403 41.8439 0.571816 41.8123 0.604993C40.4833 2.49572 33.9779 11.599 26.4232 20.5622C-38.4199 103.262 36.6362 159.072 36.6362 159.072L37.2656 159.492C37.825 168.105 39.2243 180.5 39.2243 180.5H44.8203C44.8203 180.5 46.2189 168.175 46.7786 159.493L47.4083 159.002C47.4782 159.072 122.534 103.262 57.6909 20.5622V20.5622ZM42.0221 157.811C42.0221 157.811 38.6645 154.941 37.7551 153.47V153.33L41.8123 63.2777C41.8123 62.9976 42.2322 62.9976 42.2322 63.2777L46.2891 153.33V153.47C45.3797 154.941 42.0221 157.812 42.0221 157.812V157.811Z" fill="#01EC64"/>
</g>
<defs>
<clipPath id="clip0_18_337">
<rect width="83.9344" height="180" fill="white" transform="translate(0.0327759 0.5)"/>
</clipPath>
</defs>
</svg>
