<svg width="200" height="200" viewBox="0 0 200 200" fill="none" xmlns="http://www.w3.org/2000/svg">
<path d="M100 115.463C108.629 115.463 115.625 108.467 115.625 99.8375C115.625 91.2081 108.629 84.2125 100 84.2125C91.3706 84.2125 84.375 91.2081 84.375 99.8375C84.375 108.467 91.3706 115.463 100 115.463Z" fill="#00D8FF"/>
<path d="M100 135.663C81.2196 136.117 62.4862 133.585 44.5 128.163C36.1914 125.529 28.4421 121.38 21.6438 115.925C19.0496 114.062 16.8892 111.659 15.3109 108.882C13.7326 106.105 12.7737 103.02 12.5 99.8375C12.5 89.5063 23.85 79.3813 42.8625 72.7563C61.3296 66.886 80.6245 64.0409 100 64.3313C119.117 64.0642 138.153 66.8578 156.387 72.6063C164.389 75.1573 171.876 79.1058 178.5 84.2688C181.05 86.0453 183.178 88.3608 184.733 91.0513C186.288 93.7417 187.233 96.7413 187.5 99.8375C187.5 110.575 174.813 121.456 154.375 128.219C136.737 133.465 118.399 135.975 100 135.663V135.663ZM100 71.8063C81.4632 71.5585 63.0052 74.2632 45.3187 79.8188C27.8187 85.925 19.975 94.275 19.975 99.8188C19.975 105.619 28.4063 114.738 46.9187 121.069C64.1255 126.23 82.0413 128.633 100 128.188C117.603 128.502 135.15 126.121 152.031 121.125C171.25 114.756 180 105.625 180 99.8375C179.685 97.8514 178.961 95.9523 177.874 94.2602C176.788 92.568 175.362 91.1195 173.688 90.0063C167.761 85.4259 161.073 81.9265 153.931 79.6688C136.488 74.1923 118.281 71.538 100 71.8063V71.8063Z" fill="#00D8FF"/>
<path d="M64.5 177.769C61.5844 177.836 58.7032 177.128 56.15 175.719C47.2 170.556 44.1 155.669 47.8563 135.888C51.9978 116.957 59.1738 98.8206 69.1063 82.1813C78.4233 65.4882 90.3511 50.3932 104.437 37.4688C110.645 31.8107 117.805 27.2972 125.588 24.1375C128.402 22.8184 131.473 22.1346 134.581 22.1346C137.69 22.1346 140.76 22.8184 143.575 24.1375C152.881 29.5 155.963 45.925 151.619 67.0063C147.349 84.9098 140.36 102.053 130.894 117.838C121.905 134.333 110.352 149.297 96.6688 162.169C90.2362 168.049 82.7708 172.687 74.65 175.85C71.3989 177.057 67.9673 177.705 64.5 177.769V177.769ZM75.5813 85.8938C66.1069 101.827 59.2291 119.167 55.2063 137.263C51.75 155.481 55.0688 166.438 59.8938 169.225C64.8938 172.119 77.0313 169.375 91.7688 156.5C104.831 144.168 115.858 129.845 124.438 114.063C133.506 98.972 140.211 82.5821 144.319 65.4625C148.406 45.6188 144.875 33.4688 139.863 30.5813C137.984 29.8614 135.976 29.5392 133.967 29.6349C131.957 29.7307 129.989 30.2423 128.188 31.1375C121.261 33.9959 114.892 38.054 109.375 43.125C95.9167 55.5049 84.5231 69.9559 75.625 85.9313L75.5813 85.8938Z" fill="#00D8FF"/>
<path d="M135.481 177.85C127.012 177.85 116.256 172.725 105.056 163.094C90.7231 150.052 78.5936 134.777 69.1375 117.862C59.3296 101.452 52.2104 83.5784 48.05 64.9187C46.2457 56.7093 45.9113 48.2449 47.0625 39.9187C47.3286 36.83 48.2691 33.8373 49.8177 31.1516C51.3662 28.4659 53.4851 26.1527 56.025 24.375C65.3187 18.9937 81.0875 24.525 97.1812 38.8125C110.56 51.4511 121.921 66.0669 130.869 82.15C140.671 98.1772 147.864 115.66 152.181 133.944C154.063 142.454 154.354 151.24 153.037 159.856C152.724 163.034 151.728 166.106 150.116 168.862C148.504 171.619 146.316 173.994 143.7 175.825C141.188 177.217 138.352 177.916 135.481 177.85V177.85ZM75.6062 114.1C84.6777 130.265 96.2643 144.883 109.931 157.406C123.987 169.5 135.137 172.1 139.931 169.281C144.931 166.375 148.619 154.512 144.819 135.319C140.655 117.862 133.756 101.174 124.375 85.875C115.836 70.482 104.992 56.4866 92.2187 44.375C77.0687 30.925 64.7812 27.9187 59.775 30.8187C58.2146 32.0868 56.9341 33.6645 56.0144 35.4524C55.0946 37.2403 54.5555 39.1995 54.4312 41.2062C53.4375 48.6318 53.7612 56.1744 55.3875 63.4875C59.3894 81.3321 66.2171 98.4226 75.6125 114.112L75.6062 114.1Z" fill="#00D8FF"/>
</svg>
