<svg fill="none" xmlns="http://www.w3.org/2000/svg" viewBox="11.68 18.25 249.82 87.53">
    <path d="M50.5 105.75C49.3196 105.75 48.1599 105.44 47.1375 104.85L36.4375 98.5156C34.8406 97.6219 35.6188 97.3063 36.1469 97.1219C37.8452 96.5972 39.4714 95.8623 40.9875 94.9344C41.1144 94.8757 41.2542 94.8503 41.3936 94.8607C41.5331 94.8711 41.6676 94.9169 41.7844 94.9938L50.0063 99.8781C50.1594 99.9591 50.3299 100.001 50.5031 100.001C50.6763 100.001 50.8469 99.9591 51 99.8781L83.0625 81.3719C83.2125 81.282 83.3367 81.1547 83.4227 81.0024C83.5087 80.8501 83.5536 80.678 83.5531 80.5031V43.4844C83.5532 43.3067 83.5076 43.132 83.4205 42.9771C83.3335 42.8222 83.2081 42.6923 83.0563 42.6L50.9938 24.1094C50.8426 24.0242 50.672 23.9795 50.4984 23.9795C50.3249 23.9795 50.1543 24.0242 50.0031 24.1094L17.9594 42.6063C17.8065 42.6966 17.6796 42.825 17.5909 42.9788C17.5022 43.1327 17.4548 43.3068 17.4531 43.4844V80.4875C17.4536 80.662 17.5004 80.8333 17.5888 80.9837C17.6772 81.1342 17.804 81.2584 17.9563 81.3438L26.75 86.4188C31.5156 88.8 34.4344 85.9938 34.4344 83.175V46.6406C34.4344 46.392 34.5332 46.1535 34.709 45.9777C34.8848 45.8019 35.1232 45.7031 35.3719 45.7031H39.4344C39.683 45.7031 39.9215 45.8019 40.0973 45.9777C40.2731 46.1535 40.3719 46.392 40.3719 46.6406V83.1781C40.3719 89.5375 36.9094 93.1781 30.8781 93.1781C28.2762 93.2235 25.715 92.5276 23.4938 91.1719L15.0656 86.3375C14.0425 85.7417 13.1935 84.8879 12.6035 83.8614C12.0134 82.8348 11.703 81.6715 11.7031 80.4875V43.4844C11.7001 42.2985 12.0092 41.1328 12.5995 40.1043C13.1897 39.0757 14.0402 38.2207 15.0656 37.625L47.1313 19.1125C48.1642 18.5474 49.3226 18.2512 50.5 18.2512C51.6774 18.2512 52.8358 18.5474 53.8688 19.1125L85.9313 37.625C86.9543 38.2197 87.8035 39.0723 88.394 40.0977C88.9846 41.1231 89.2959 42.2854 89.2969 43.4688V80.4875C89.2951 81.6715 88.9836 82.8344 88.3931 83.8607C87.8027 84.887 86.9539 85.7409 85.9313 86.3375L53.8688 104.85C52.8445 105.441 51.6825 105.751 50.5 105.75V105.75Z" fill="#83CD29"/>
    <path d="M44.4187 68.1031C44.4187 67.8545 44.5175 67.616 44.6933 67.4402C44.8691 67.2644 45.1076 67.1656 45.3562 67.1656H49.5031C49.7247 67.1663 49.9389 67.2455 50.1076 67.3891C50.2764 67.5327 50.3888 67.7314 50.425 67.95C51.05 72.1719 52.925 74.3 61.4031 74.3C68.1562 74.3 71.0344 72.7719 71.0344 69.1875C71.0344 67.1219 70.2187 65.5875 59.7219 64.5594C50.9469 63.6906 45.5219 61.7469 45.5219 54.7344C45.5219 48.2656 50.975 44.4062 60.1156 44.4062C70.3875 44.4062 75.4719 47.9719 76.1156 55.6219C76.1255 55.7496 76.109 55.878 76.0673 55.9991C76.0256 56.1202 75.9595 56.2315 75.8731 56.3261C75.7867 56.4207 75.6819 56.4965 75.565 56.549C75.4482 56.6015 75.3218 56.6295 75.1937 56.6312H71.0187C70.8093 56.6283 70.6069 56.5553 70.4437 56.4239C70.2806 56.2925 70.1662 56.1103 70.1187 55.9063C69.1219 51.4656 66.6812 50.0469 60.1187 50.0469C52.7437 50.0469 51.8875 52.6156 51.8875 54.5406C51.8875 56.8719 52.9 57.5531 62.8562 58.8688C72.7094 60.1719 77.3906 62.0156 77.3906 68.9406C77.3906 75.9281 71.5656 79.9281 61.4062 79.9281C47.3594 79.9469 44.4187 73.5062 44.4187 68.1031V68.1031Z" fill="#83CD29"/>
    <path d="M132.875 61.8125H145.75V66.0625H132.875V79.3125H128.594V66.0625H115.719V61.8125H128.594V48.5H132.875V61.8125Z" fill="white"/>
    <g clip-path="url(#clip0_18_328)">
        <path d="M261.5 89.45C260.045 90.0005 258.438 89.9993 256.983 89.4466C255.529 88.894 254.327 87.8281 253.604 86.45L239.229 66.5709L237.146 63.7917L220.467 86.475C219.787 87.7952 218.651 88.8229 217.269 89.3658C215.887 89.9087 214.355 89.9298 212.958 89.425L234.45 60.5917L214.458 34.5458C215.896 34.0278 217.468 34.021 218.91 34.5264C220.352 35.0318 221.576 36.0187 222.375 37.3208L237.275 57.4458L252.258 37.4042C252.943 36.1075 254.08 35.1075 255.453 34.5943C256.827 34.0811 258.341 34.0906 259.708 34.6208L251.95 44.9167L241.442 58.5958C241.15 58.8562 240.916 59.1752 240.756 59.5321C240.597 59.889 240.514 60.2756 240.514 60.6667C240.514 61.0577 240.597 61.4444 240.756 61.8013C240.916 62.1581 241.15 62.4772 241.442 62.7375L261.458 89.4542L261.5 89.45ZM161.508 60.2334L163.258 51.5875C168.067 34.4917 187.667 27.3792 201.15 37.9625C209.046 44.1667 211.017 52.95 210.629 62.85H166.15C165.429 80.5292 178.187 91.2042 194.5 85.75C197.144 84.7981 199.511 83.2052 201.389 81.1138C203.267 79.0225 204.596 76.498 205.258 73.7667C206.121 70.9917 207.542 70.5167 210.15 71.3167C209.715 74.7016 208.519 77.9439 206.65 80.7997C204.782 83.6554 202.29 86.0503 199.363 87.8042C194.527 90.4493 188.978 91.4977 183.511 90.7995C178.043 90.1013 172.937 87.6922 168.921 83.9167C164.95 79.4475 162.55 73.8021 162.088 67.8417C162.088 66.8625 161.754 65.9459 161.529 65.0667C161.509 63.457 161.499 61.8473 161.5 60.2375L161.508 60.2334ZM166.204 59.0417H206.429C206.179 46.225 198.092 37.1333 187.304 37.05C175.296 36.8833 166.704 45.775 166.175 58.9834L166.204 59.0417Z" fill="white"/>
    </g>
    <defs>
        <clipPath id="clip0_18_328">
            <rect width="100" height="100" fill="white" transform="translate(161.5 12)"/>
        </clipPath>
    </defs>
</svg>
