<svg width="47" height="70" viewBox="0 0 47 70" fill="none" xmlns="http://www.w3.org/2000/svg">
<g clip-path="url(#clip0_18_290)">
<path d="M11.6683 70C18.1083 70 23.335 64.7733 23.335 58.3333V46.6666H11.6683C5.22833 46.6666 0.00166702 51.8933 0.00166702 58.3333C0.00166702 64.7733 5.22833 70 11.6683 70Z" fill="#0ACF83"/>
<path d="M0.00166702 35C0.00166702 28.56 5.22833 23.3334 11.6683 23.3334H23.335V46.6667H11.6683C5.22833 46.6667 0.00166702 41.44 0.00166702 35Z" fill="#A259FF"/>
<path d="M0.00166702 11.6667C0.00166702 5.22667 5.22833 0 11.6683 0H23.335V23.3333H11.6683C5.22833 23.3333 0.00166702 18.1067 0.00166702 11.6667Z" fill="#F24E1E"/>
<path d="M23.335 0H35.0017C41.4417 0 46.6683 5.22667 46.6683 11.6667C46.6683 18.1067 41.4417 23.3333 35.0017 23.3333H23.335V0Z" fill="#FF7262"/>
<path d="M46.6683 35C46.6683 41.44 41.4417 46.6667 35.0017 46.6667C28.5617 46.6667 23.335 41.44 23.335 35C23.335 28.56 28.5617 23.3334 35.0017 23.3334C41.4417 23.3334 46.6683 28.56 46.6683 35Z" fill="#1ABCFE"/>
</g>
<defs>
<clipPath id="clip0_18_290">
<rect width="46.67" height="70" fill="white"/>
</clipPath>
</defs>
</svg>
