<svg width="70" height="67" viewBox="0 0 70 67" fill="none" xmlns="http://www.w3.org/2000/svg">
<g clip-path="url(#clip0_18_284)">
<path d="M48.5014 46.4067C51.0843 46.1393 53.0439 43.9127 52.9547 41.2403C52.8659 38.5683 50.639 36.4305 47.9669 36.4305H47.7889C45.0275 36.5196 42.89 38.8354 42.9791 41.5966C43.0682 42.9328 43.6025 44.0906 44.4041 44.8923C41.3758 50.8603 36.7443 55.2247 29.7969 58.8767C25.0762 61.3707 20.1775 62.2615 15.2788 61.6381C11.2706 61.1036 8.15322 59.3223 6.19342 56.3826C3.34339 52.0182 3.07627 47.2972 5.48119 42.5765C7.17359 39.1917 9.84536 36.6976 11.5378 35.4506C11.1815 34.2927 10.647 32.3332 10.3799 30.9082C-2.5352 40.2607 -1.19904 52.9089 2.72002 58.8767C5.65918 63.3305 11.6269 66.0917 18.218 66.0917C19.9993 66.0917 21.7805 65.9134 23.5621 65.4683C34.963 63.2414 43.6027 56.4717 48.5014 46.4067ZM64.1777 35.3618C57.4083 27.4342 47.4327 23.0698 36.0317 23.0698H34.6067C33.8051 21.4665 32.1127 20.3975 30.2423 20.3975H30.064C27.3031 20.4866 25.1656 22.8024 25.2545 25.5638C25.3436 28.2359 27.5703 30.3737 30.2423 30.3737H30.4203C32.3798 30.2845 34.0722 29.0375 34.7847 27.3451H36.388C43.1574 27.3451 49.5702 29.3046 55.3599 33.1348C59.8132 36.0743 63.0198 39.9045 64.801 44.536C66.3152 48.2771 66.2261 51.929 64.6228 55.0467C62.129 59.7674 57.9428 62.3506 52.4205 62.3506C48.8577 62.3506 45.4731 61.2816 43.6916 60.4799C42.712 61.3707 40.9304 62.7957 39.6834 63.6868C43.5136 65.468 47.4327 66.4479 51.1735 66.4479C59.7241 66.4479 66.0481 61.727 68.453 57.0063C71.0359 51.8399 70.8576 42.9328 64.1777 35.3618ZM18.9305 47.9206C19.0196 50.5929 21.2463 52.7304 23.9183 52.7304H24.0966C26.8577 52.6415 28.9953 50.3255 28.9061 47.5643C28.8173 44.892 26.5904 42.7545 23.9183 42.7545H23.7403C23.5621 42.7545 23.2947 42.7545 23.117 42.8433C19.465 36.7865 17.9509 30.1954 18.4854 23.0695C18.8414 17.7252 20.6229 13.0933 23.7403 9.26313C26.3232 5.96745 31.3111 4.36417 34.6959 4.27531C44.137 4.09705 48.1449 15.8545 48.4123 20.5755C49.5702 20.8426 51.5297 21.4662 52.8659 21.9116C51.7968 7.48214 42.89 0 34.3396 0C26.3232 0 18.9305 5.78973 15.9911 14.3406C11.894 25.7418 14.5661 36.6976 19.5539 45.3377C19.1088 45.961 18.8414 46.9409 18.9305 47.9208V47.9206Z" fill="#764ABC"/>
</g>
<defs>
<clipPath id="clip0_18_284">
<rect width="70" height="66.7121" fill="white"/>
</clipPath>
</defs>
</svg>
