<svg width="62" height="70" viewBox="0 0 62 70" fill="none" xmlns="http://www.w3.org/2000/svg">
<g clip-path="url(#clip0_18_296)">
<path d="M18.7997 42.7714C17.6888 43.4659 16.015 44.5917 14.7201 45.8158C12.5943 47.8234 12.1494 50.6081 13.2709 51.2586C14.3082 51.8599 16.73 51.1444 18.4633 49.2537C20.2823 47.2689 21.0325 44.7527 20.2577 41.8963C20.1667 41.9505 20.0774 42.005 19.9897 42.0556L19.9916 42.0597L19.874 42.1261C19.4218 42.3961 19.0522 42.619 18.7997 42.7712V42.7714ZM50.018 41.87C49.3887 43.2378 49.3572 43.6776 49.5483 43.8147C50.4614 43.4867 51.972 42.6962 51.984 40.5775C51.9859 40.2603 51.9159 39.9201 51.8036 39.5641C50.8274 40.4284 50.2648 41.3334 50.018 41.87ZM59.8156 37.7355C57.3764 37.4512 55.473 37.7933 53.9958 38.4087C54.2694 39.1207 54.4796 39.862 54.5092 40.6091C54.5778 42.2487 53.4492 43.4621 52.2731 44.3286C51.5862 44.8337 50.8554 45.1703 50.2419 45.3736C49.7514 45.5803 49.0994 45.7941 48.6366 45.6997C47.6165 45.4923 47.0735 44.5864 47.7675 42.5872C48.1423 41.5054 49.2236 39.8589 50.9691 38.4403C50.5713 37.6213 50.1279 36.787 49.9019 36.0201C49.4566 34.5088 49.3221 33.5952 49.3221 33.5952C49.3221 33.5952 47.8834 36.5782 46.0273 39.2908C45.9203 39.4484 45.8135 39.6028 45.7064 39.7569C46.071 40.6043 46.3582 41.5002 46.3971 42.4033C46.4654 44.0429 45.7556 45.2826 44.5778 46.1469C43.9402 46.6171 43.26 46.9418 42.6764 47.1484C42.3032 47.3111 41.5442 47.5794 40.4648 47.6516C39.8745 47.692 39.3066 47.6554 38.9895 47.4151C38.5531 47.0854 38.5005 46.6783 38.7265 46.1226C38.9176 45.6505 40.3475 44.0183 41.5463 42.5891C41.8657 42.2066 42.1753 41.816 42.475 41.4178L42.468 41.402C42.468 41.402 42.6852 41.1218 43.0376 40.6325C42.5994 39.6888 42.044 38.7069 41.7828 37.8162C41.3375 36.3047 41.2028 35.3911 41.2028 35.3911C41.2028 35.3911 39.7445 39.1297 38.2253 42.1139C37.0496 44.4254 36.2643 45.8261 35.9105 46.4401L35.9069 46.4647C35.9069 46.4647 35.8541 46.5543 35.7631 46.6945L35.695 46.8082L35.6931 46.7977C35.2986 47.3802 34.4137 48.5212 33.5341 48.5212C31.1192 48.5212 32.0058 43.6167 32.0058 43.6167C32.0058 43.6167 31.2998 45.4336 30.504 46.9924C29.8559 48.2634 29.2653 49.3404 27.9737 49.3404C27.6022 49.3404 27.0133 49.3299 26.5243 48.865C25.415 47.8112 24.5669 45.1352 24.7332 43.0626C24.8751 41.3005 25.1467 40.0796 25.5182 39.0614C24.7757 39.4654 24.0397 39.8811 23.3103 40.3083L22.1114 41.0147L22.1501 41.085C23.1418 43.0034 23.4065 47.2065 21.2439 50.4327C19.0816 53.6608 15.0562 55.6249 11.1343 54.5343C9.86882 54.1819 7.95708 51.5639 9.60602 47.9149C11.0605 44.6968 16.8734 41.6548 18.4052 40.8955L18.8257 40.6638C15.7715 37.9916 8.14462 34.3865 7.07575 28.8488C6.77425 27.2899 7.50507 23.5618 12.0823 19.2765C15.9323 15.6728 21.2879 12.9127 26.2352 11.1539C34.5468 8.19954 43.3286 9.94213 44.6796 15.2416C46.0079 20.4531 41.4868 26.6869 35.6967 28.9279C30.5269 30.9285 26.2526 30.6112 24.4967 30.0345C22.5006 29.3787 21.3299 28.0616 21.0445 27.3181C20.9322 27.0269 20.7391 26.5379 21.0445 26.3697C21.2318 26.266 21.307 26.2908 21.8082 26.8449C22.2851 27.3709 24.2021 28.7824 27.8438 28.3739C37.4001 27.3026 43.1566 19.8726 41.3375 15.8744C40.0637 13.0761 32.6981 11.8135 23.4959 16.4024C12.2627 22.0029 11.653 26.62 11.5567 28.3736C11.2937 33.1977 17.506 35.7351 20.8674 39.3225L20.9969 39.4647C21.626 39.1176 22.2904 38.7511 22.9421 38.3934C24.2872 37.6546 25.6331 36.9173 26.9799 36.1816C28.163 34.4622 30.5635 32.5646 32.2968 32.5646C35.0674 32.5646 34.1158 36.5467 34.1158 36.5467C34.1158 36.5467 34.172 36.3646 34.2472 36.3627C34.3261 36.3608 34.6311 35.8381 35.4864 36.1501C36.3661 36.4731 36.1661 37.0904 36.1716 37.1535C36.1821 37.2758 35.1324 40.8162 34.6961 43.0872C34.4873 44.1709 34.6082 44.9603 34.6698 44.9603C34.7556 44.9603 34.931 44.6846 35.0939 44.3886L35.0903 44.3797C35.0903 44.3797 35.2129 44.1552 35.4181 43.7521L35.4585 43.6678L35.4602 43.6716C35.7998 43.0014 36.1246 42.3238 36.4344 41.6392C37.2037 39.9437 40.1389 33.3974 40.3879 32.6735C40.6366 31.9494 40.7663 31.2004 40.8891 30.8793C41.01 30.5584 42.0476 30.3164 43.26 30.3253C44.4727 30.3341 44.5957 30.8516 44.6041 30.9584C44.6129 31.0652 44.0276 32.5017 43.8926 33.5168C43.7596 34.5322 43.8876 35.0387 43.998 35.8911C44.0699 36.4485 44.4185 37.1554 44.8306 37.9565C46.0853 35.9047 48.2931 31.9807 48.5052 30.8812C48.6505 30.1291 48.8837 29.4083 49.0065 29.087C49.129 28.7662 50.1649 28.5244 51.3774 28.533C52.5901 28.5421 52.7126 29.0593 52.7215 29.1661C52.7303 29.2731 52.1431 30.7094 52.01 31.7248C51.8767 32.7382 52.005 33.2466 52.1151 34.0991C52.21 34.8282 52.774 35.8084 53.3333 36.9234C54.8595 36.1713 56.6558 35.6665 58.7589 35.656C59.6297 35.6508 60.641 35.7382 61.1633 35.9011V19.1257C61.1633 17.9422 60.5567 16.8513 59.5318 16.2605L32.1656 0.443153C31.6642 0.152785 31.0951 -0.00012207 30.5157 -0.00012207C29.9363 -0.00012207 29.3672 0.152785 28.8658 0.443153L1.57514 16.2529C0.551655 16.8439 0.00479507 17.9362 0.00479507 19.1179V50.766C0.00479507 51.9476 0.555 53.0401 1.57681 53.631L28.9114 69.4527C29.4103 69.7439 29.9775 69.8974 30.5551 69.8974C31.1328 69.8974 31.7 69.7439 32.1988 69.4527L59.5459 53.6307C60.5691 53.0382 61.1652 51.9471 61.1652 50.7658V37.9756C60.8181 37.8733 60.3099 37.7928 59.8156 37.7352V37.7355ZM30.3745 36.0779C29.7875 36.7354 28.787 38.4312 28.319 39.8503C27.3884 42.6677 27.7915 45.5315 28.4504 45.7035C29.2196 45.9049 30.4816 42.1385 31.0857 40.6654C31.4644 39.7428 32.9366 35.6486 32.614 35.1018C32.3622 34.6739 31.3192 35.0193 30.3745 36.0782V36.0779ZM41.021 45.575C41.021 45.575 40.8353 45.7508 40.9156 45.7996C41.0243 45.8646 41.2592 45.7805 41.515 45.6469C42.2389 45.1916 43.8633 44.0551 43.8668 42.3734C43.8668 42.3242 43.8649 42.2769 43.8616 42.226C43.5259 42.6663 43.1847 43.1023 42.8381 43.534C42.3264 44.1707 41.021 45.575 41.021 45.575Z" fill="#8CC84B"/>
</g>
<defs>
<clipPath id="clip0_18_296">
<rect width="61.17" height="70" fill="white"/>
</clipPath>
</defs>
</svg>
