<svg width="1920" height="75" viewBox="0 0 1920 75" fill="none" xmlns="http://www.w3.org/2000/svg">
<path d="M0 41.4286C81.6386 69.5238 184.682 48.5715 207.581 41.4286C230.48 34.2857 313.114 21.4286 411.677 41.4286C510.241 61.4286 567.985 63.0953 642.655 41.4286C717.324 19.762 786.258 22.1095 853.223 41.4286C915.945 59.5238 988.126 62.381 1066.78 41.4286C1148.38 19.6899 1205.66 22.619 1268.88 41.4286C1330.75 59.8366 1403.79 60.238 1478.95 41.4286C1539.28 26.3314 1640.81 18.7976 1696.99 41.4286C1753.17 64.0597 1867.25 62 1920 41.4286V75H0V41.4286Z" fill="#0075A2"/>
<path d="M207.581 41.4286C184.682 48.5715 81.6386 69.5238 0 41.4286V0H1920V41.4286C1867.25 62 1753.17 64.0597 1696.99 41.4286C1640.81 18.7976 1539.28 26.3314 1478.95 41.4286C1403.79 60.238 1330.75 59.8366 1268.88 41.4286C1205.66 22.619 1148.38 19.6899 1066.78 41.4286C988.126 62.381 915.945 59.5238 853.223 41.4286C786.258 22.1095 717.324 19.762 642.655 41.4286C567.985 63.0953 510.241 61.4286 411.677 41.4286C313.114 21.4286 230.48 34.2857 207.581 41.4286Z" fill="#000F1B"/>
</svg>
